{
    "asset" : {
        "generator" : "Khronos glTF Blender I/O v1.4.40",
        "version" : "2.0"
    },
    "scene" : 0,
    "scenes" : [
        {
            "name" : "Scene",
            "nodes" : [
                0,
                1,
                2
            ]
        }
    ],
    "nodes" : [
        {
            "mesh" : 0,
            "name" : "Bench N190708",
            "scale" : [
                0.8012378215789795,
                0.8012378215789795,
                0.8012378215789795
            ]
        },
        {
            "name" : "Light",
            "rotation" : [
                0.16907575726509094,
                0.7558803558349609,
                -0.27217137813568115,
                0.570947527885437
            ],
            "translation" : [
                4.076245307922363,
                5.903861999511719,
                -1.0054539442062378
            ]
        },
        {
            "name" : "Camera",
            "rotation" : [
                0.483536034822464,
                0.33687159419059753,
                -0.20870360732078552,
                0.7804827094078064
            ],
            "translation" : [
                7.358891487121582,
                4.958309173583984,
                6.925790786743164
            ]
        }
    ],
    "meshes" : [
        {
            "name" : "Bench N190708",
            "primitives" : [
                {
                    "attributes" : {
                        "POSITION" : 0,
                        "NORMAL" : 1
                    },
                    "indices" : 2
                }
            ]
        }
    ],
    "accessors" : [
        {
            "bufferView" : 0,
            "componentType" : 5126,
            "count" : 29192,
            "max" : [
                0.5978797674179077,
                0.6134434342384338,
                0.1706804484128952
            ],
            "min" : [
                -0.5514446496963501,
                0.0027153193950653076,
                -0.22266627848148346
            ],
            "type" : "VEC3"
        },
        {
            "bufferView" : 1,
            "componentType" : 5126,
            "count" : 29192,
            "type" : "VEC3"
        },
        {
            "bufferView" : 2,
            "componentType" : 5123,
            "count" : 33030,
            "type" : "SCALAR"
        }
    ],
    "bufferViews" : [
        {
            "buffer" : 0,
            "byteLength" : 350304,
            "byteOffset" : 0
        },
        {
            "buffer" : 0,
            "byteLength" : 350304,
            "byteOffset" : 350304
        },
        {
            "buffer" : 0,
            "byteLength" : 66060,
            "byteOffset" : 700608
        }
    ],
    "buffers" : [
        {
            "byteLength" : 766668,
            "uri" : "data:application/octet-stream;base64,"
        }
    ]
}
