{
    "asset" : {
        "generator" : "Khronos glTF Blender I/O v1.4.40",
        "version" : "2.0"
    },
    "scene" : 0,
    "scenes" : [
        {
            "name" : "Scene",
            "nodes" : [
                0,
                1,
                2
            ]
        }
    ],
    "nodes" : [
        {
            "mesh" : 0,
            "name" : "Bench2 0.037",
            "rotation" : [
                0,
                -0.7071067690849304,
                0,
                0.7071068286895752
            ],
            "scale" : [
                0.011998678557574749,
                0.011998678557574749,
                0.011998678557574749
            ],
            "translation" : [
                0,
                -0.005532462149858475,
                -0.13465523719787598
            ]
        },
        {
            "mesh" : 1,
            "name" : "Bench2 0.038",
            "rotation" : [
                0,
                -0.7071067690849304,
                0,
                0.7071068286895752
            ],
            "scale" : [
                0.011998678557574749,
                0.011998678557574749,
                0.011998678557574749
            ],
            "translation" : [
                0,
                -0.005532462149858475,
                -0.13465523719787598
            ]
        },
        {
            "name" : "Correction_Camera"
        }
    ],
    "materials" : [
        {
            "emissiveFactor" : [
                0.259797066450119,
                0.056130655109882355,
                0.0024477741681039333
            ],
            "name" : "lambert2SG",
            "pbrMetallicRoughness" : {
                "baseColorFactor" : [
                    0.07000000029802322,
                    0.07999999821186066,
                    0.09000000357627869,
                    1
                ]
            }
        },
        {
            "name" : "lambert3SG",
            "pbrMetallicRoughness" : {
                "baseColorFactor" : [
                    0.8399999737739563,
                    0.8100000023841858,
                    0.75,
                    1
                ]
            }
        }
    ],
    "meshes" : [
        {
            "name" : "Bench2 0.037",
            "primitives" : [
                {
                    "attributes" : {
                        "POSITION" : 0,
                        "NORMAL" : 1
                    },
                    "indices" : 2,
                    "material" : 0
                }
            ]
        },
        {
            "name" : "Bench2 0.038",
            "primitives" : [
                {
                    "attributes" : {
                        "POSITION" : 3,
                        "NORMAL" : 4
                    },
                    "indices" : 5,
                    "material" : 1
                }
            ]
        }
    ],
    "accessors" : [
        {
            "bufferView" : 0,
            "componentType" : 5126,
            "count" : 160,
            "max" : [
                24.823848724365234,
                62.00038528442383,
                76.93665313720703
            ],
            "min" : [
                -12.987006187438965,
                26.533979415893555,
                -82.11302185058594
            ],
            "type" : "VEC3"
        },
        {
            "bufferView" : 1,
            "componentType" : 5126,
            "count" : 160,
            "type" : "VEC3"
        },
        {
            "bufferView" : 2,
            "componentType" : 5123,
            "count" : 210,
            "type" : "SCALAR"
        },
        {
            "bufferView" : 3,
            "componentType" : 5126,
            "count" : 159,
            "max" : [
                23.83837127685547,
                58.83669662475586,
                69.65663146972656
            ],
            "min" : [
                -23.87282943725586,
                0.023441342636942863,
                -70.63075256347656
            ],
            "type" : "VEC3"
        },
        {
            "bufferView" : 4,
            "componentType" : 5126,
            "count" : 159,
            "type" : "VEC3"
        },
        {
            "bufferView" : 5,
            "componentType" : 5123,
            "count" : 216,
            "type" : "SCALAR"
        }
    ],
    "bufferViews" : [
        {
            "buffer" : 0,
            "byteLength" : 1920,
            "byteOffset" : 0
        },
        {
            "buffer" : 0,
            "byteLength" : 1920,
            "byteOffset" : 1920
        },
        {
            "buffer" : 0,
            "byteLength" : 420,
            "byteOffset" : 3840
        },
        {
            "buffer" : 0,
            "byteLength" : 1908,
            "byteOffset" : 4260
        },
        {
            "buffer" : 0,
            "byteLength" : 1908,
            "byteOffset" : 6168
        },
        {
            "buffer" : 0,
            "byteLength" : 432,
            "byteOffset" : 8076
        }
    ],
    "buffers" : [
        {
            "byteLength" : 8508,
            "uri" : "data:application/octet-stream;base64,"
        }
    ]
}
