{
    "asset" : {
        "generator" : "Khronos glTF Blender I/O v1.4.40",
        "version" : "2.0"
    },
    "scene" : 0,
    "scenes" : [
        {
            "name" : "Scene",
            "nodes" : [
                0,
                1,
                2
            ]
        }
    ],
    "nodes" : [
        {
            "name" : "Light",
            "rotation" : [
                0.16907575726509094,
                0.7558803558349609,
                -0.27217137813568115,
                0.570947527885437
            ],
            "translation" : [
                4.076245307922363,
                5.903861999511719,
                -1.0054539442062378
            ]
        },
        {
            "name" : "Camera",
            "rotation" : [
                0.483536034822464,
                0.33687159419059753,
                -0.20870360732078552,
                0.7804827094078064
            ],
            "translation" : [
                7.358891487121582,
                4.958309173583984,
                6.925790786743164
            ]
        },
        {
            "mesh" : 0,
            "name" : "Bench2 0",
            "rotation" : [
                0,
                -0.7071067690849304,
                0,
                0.7071068286895752
            ],
            "scale" : [
                0.011998678557574749,
                0.011998678557574749,
                0.011998678557574749
            ],
            "translation" : [
                0,
                -0.005532462149858475,
                -0.13465523719787598
            ]
        }
    ],
    "meshes" : [
        {
            "name" : "Bench2 0",
            "primitives" : [
                {
                    "attributes" : {
                        "POSITION" : 0,
                        "NORMAL" : 1
                    },
                    "indices" : 2
                }
            ]
        }
    ],
    "accessors" : [
        {
            "bufferView" : 0,
            "componentType" : 5126,
            "count" : 286,
            "max" : [
                24.823848724365234,
                62.000389099121094,
                76.93666076660156
            ],
            "min" : [
                -23.872833251953125,
                0.023441314697265625,
                -82.11302185058594
            ],
            "type" : "VEC3"
        },
        {
            "bufferView" : 1,
            "componentType" : 5126,
            "count" : 286,
            "type" : "VEC3"
        },
        {
            "bufferView" : 2,
            "componentType" : 5123,
            "count" : 432,
            "type" : "SCALAR"
        }
    ],
    "bufferViews" : [
        {
            "buffer" : 0,
            "byteLength" : 3432,
            "byteOffset" : 0
        },
        {
            "buffer" : 0,
            "byteLength" : 3432,
            "byteOffset" : 3432
        },
        {
            "buffer" : 0,
            "byteLength" : 864,
            "byteOffset" : 6864
        }
    ],
    "buffers" : [
        {
            "byteLength" : 7728,
            "uri" : "data:application/octet-stream;base64,"
        }
    ]
}
