{
    "asset" : {
        "generator" : "Khronos glTF Blender I/O v1.4.40",
        "version" : "2.0"
    },
    "scene" : 0,
    "scenes" : [
        {
            "name" : "Scene",
            "nodes" : [
                0
            ]
        }
    ],
    "nodes" : [
        {
            "mesh" : 0,
            "name" : "Text",
            "scale" : [
                0.7250072956085205,
                0.7250072956085205,
                0.7250072956085205
            ],
            "translation" : [
                -0.8833950161933899,
                0,
                0.10548494756221771
            ]
        }
    ],
    "materials" : [
        {
            "doubleSided" : true,
            "emissiveFactor" : [
                1,
                0.1313212811946869,
                0.002460859715938568
            ],
            "name" : "Material.004",
            "pbrMetallicRoughness" : {
                "baseColorFactor" : [
                    0.8000000715255737,
                    0.38567352294921875,
                    0.05438809096813202,
                    1
                ],
                "metallicFactor" : 0
            }
        }
    ],
    "meshes" : [
        {
            "name" : "Text",
            "primitives" : [
                {
                    "attributes" : {
                        "POSITION" : 0,
                        "NORMAL" : 1,
                        "TEXCOORD_0" : 2
                    },
                    "indices" : 3,
                    "material" : 0
                }
            ]
        }
    ],
    "accessors" : [
        {
            "bufferView" : 0,
            "componentType" : 5126,
            "count" : 537,
            "max" : [
                2.4190001487731934,
                0,
                0.009000000543892384
            ],
            "min" : [
                0.07500000298023224,
                0,
                -0.6820000410079956
            ],
            "type" : "VEC3"
        },
        {
            "bufferView" : 1,
            "componentType" : 5126,
            "count" : 537,
            "type" : "VEC3"
        },
        {
            "bufferView" : 2,
            "componentType" : 5126,
            "count" : 537,
            "type" : "VEC2"
        },
        {
            "bufferView" : 3,
            "componentType" : 5123,
            "count" : 1239,
            "type" : "SCALAR"
        }
    ],
    "bufferViews" : [
        {
            "buffer" : 0,
            "byteLength" : 6444,
            "byteOffset" : 0
        },
        {
            "buffer" : 0,
            "byteLength" : 6444,
            "byteOffset" : 6444
        },
        {
            "buffer" : 0,
            "byteLength" : 4296,
            "byteOffset" : 12888
        },
        {
            "buffer" : 0,
            "byteLength" : 2478,
            "byteOffset" : 17184
        }
    ],
    "buffers" : [
        {
            "byteLength" : 19664,
            "uri" : "data:application/octet-stream;base64,"
        }
    ]
}
