{
    "asset" : {
        "generator" : "Khronos glTF Blender I/O v1.4.40",
        "version" : "2.0"
    },
    "scene" : 0,
    "scenes" : [
        {
            "name" : "Scene",
            "nodes" : [
                0
            ]
        }
    ],
    "nodes" : [
        {
            "mesh" : 0,
            "name" : "Bin",
            "rotation" : [
                0,
                -0.7071067690849304,
                0,
                0.7071068286895752
            ],
            "scale" : [
                0.00397908128798008,
                0.00397908128798008,
                0.00397908128798008
            ]
        }
    ],
    "materials" : [
        {
            "name" : "lambert4SG",
            "pbrMetallicRoughness" : {
                "baseColorFactor" : [
                    0.3031976521015167,
                    0.3031976521015167,
                    0.3031976521015167,
                    1
                ]
            }
        }
    ],
    "meshes" : [
        {
            "name" : "Bin",
            "primitives" : [
                {
                    "attributes" : {
                        "POSITION" : 0,
                        "NORMAL" : 1
                    },
                    "indices" : 2,
                    "material" : 0
                }
            ]
        }
    ],
    "accessors" : [
        {
            "bufferView" : 0,
            "componentType" : 5126,
            "count" : 1148,
            "max" : [
                50.51389694213867,
                224.64016723632812,
                50
            ],
            "min" : [
                -50.51389694213867,
                -3.466261863708496,
                -50
            ],
            "type" : "VEC3"
        },
        {
            "bufferView" : 1,
            "componentType" : 5126,
            "count" : 1148,
            "type" : "VEC3"
        },
        {
            "bufferView" : 2,
            "componentType" : 5123,
            "count" : 1278,
            "type" : "SCALAR"
        }
    ],
    "bufferViews" : [
        {
            "buffer" : 0,
            "byteLength" : 13776,
            "byteOffset" : 0
        },
        {
            "buffer" : 0,
            "byteLength" : 13776,
            "byteOffset" : 13776
        },
        {
            "buffer" : 0,
            "byteLength" : 2556,
            "byteOffset" : 27552
        }
    ],
    "buffers" : [
        {
            "byteLength" : 30108,
            "uri" : "data:application/octet-stream;base64,"
        }
    ]
}
